<?xml version="1.0" standalone="no"?>
<!DOCTYPE svg PUBLIC "-//W3C//DTD SVG 1.1//EN" "http://www.w3.org/Graphics/SVG/1.1/DTD/svg11.dtd">
<svg xmlns="http://www.w3.org/2000/svg" viewBox="0 0 771.63 202.3" width="771.6300048828125" height="202.3000030517578"><defs><style>.cls-1{fill:#fff;}</style></defs><g id="Camada_2" data-name="Camada 2"><g id="Camada_1-2" data-name="Camada 1"><path class="cls-1" d="M106.8,63.45H88.67A2.71,2.71,0,0,0,86,66.16l1.35,39.75q0,11.7,6.13,19a25.07,25.07,0,0,0,9,6.75,27.29,27.29,0,0,0,30.37-5.16A25.12,25.12,0,0,0,140.6,108c0-16.78-21.21-19-31.31-6.09,0,.06.07.14.12.1.44-.38,1.73-1.19,4.7-1.22a6.65,6.65,0,0,1,4.35,1.48,7.21,7.21,0,0,1,2.71,5.38,7.37,7.37,0,0,1-2.23,5.7,7.25,7.25,0,0,1-5.21,2q-7.31,0-7.31-10.17l3.09-39A2.71,2.71,0,0,0,106.8,63.45Z"/><path class="cls-1" d="M251.75,80c7.28,0,12.76,2.91,17.69,7.39l13.21-8.51a38.29,38.29,0,1,0,0,45.46l-13.21-8.51c-5.82,4.93-10.41,7.28-17.69,7.28a21.56,21.56,0,0,1,0-43.11Z"/><path class="cls-1" d="M339.09,87.56a30,30,0,0,0-9.86-6.49,29.38,29.38,0,0,0-12-2.47,31.39,31.39,0,0,0-12,2.47,30.53,30.53,0,0,0-9.74,6.6,31.13,31.13,0,0,0-6.61,9.86,29.31,29.31,0,0,0-2.35,12,31.27,31.27,0,0,0,2.35,12,32,32,0,0,0,6.61,9.74,32.49,32.49,0,0,0,9.85,6.61,31.27,31.27,0,0,0,12,2.35,29.46,29.46,0,0,0,12-2.46,29,29,0,0,0,9.74-6.61,30.53,30.53,0,0,0,6.6-9.74,31.39,31.39,0,0,0,2.47-12,33.61,33.61,0,0,0-2.47-12A32.28,32.28,0,0,0,339.09,87.56ZM317.36,125a15.51,15.51,0,1,1,15.46-15.56A15.53,15.53,0,0,1,317.36,125Z"/><path class="cls-1" d="M371.11,87.11V80.39H353.87V138h17.24V111.3c0-11.2,7.17-17.58,15.46-17.58a18,18,0,0,1,3.58.34V79.39a20.68,20.68,0,0,0-5.37-.68C375,78.71,371.9,85.21,371.11,87.11Z"/><path class="cls-1" d="M426.21,78.27c-18.37,0-32.59,16.57-30.68,34.15a30.61,30.61,0,0,0,30.57,27.43c11.08,0,18.81-5.6,25.19-13l-12.54-7.72c-3.58,3.92-7.95,6-12.65,6a15.86,15.86,0,0,1-14.9-10.07h42.89C457.11,97.08,445.36,78.27,426.21,78.27ZM411.2,104c0-5.71,6.83-11.08,15-11.08,6.6,0,13.55,5,13.55,11.08Z"/><path class="cls-1" d="M527,78.15a31,31,0,0,0-18.82,6.39V62.11H490.76V138h17.46v-4.37A31,31,0,0,0,527,140c16.91,0,30.9-14.45,30.9-30.91C557.94,92.26,543.39,78.15,527,78.15Zm0,46.47a15.56,15.56,0,1,1,15.56-15.56A15.53,15.53,0,0,1,527,124.62Z"/><path class="cls-1" d="M614.27,84.87a33.42,33.42,0,0,0-6.95-4.14,30.67,30.67,0,0,0-24.07,0A31.3,31.3,0,0,0,566.9,97.08a30.94,30.94,0,0,0,6.61,33.82,32.15,32.15,0,0,0,9.74,6.6,32,32,0,0,0,24.07,0,33.42,33.42,0,0,0,6.95-4.14V138h17.24V80.39H614.27Zm-18.93,39.75a15.51,15.51,0,1,1,15.45-15.56A15.53,15.53,0,0,1,595.34,124.62Z"/><path class="cls-1" d="M672.57,78.38a22.55,22.55,0,0,0-15.46,6.49V80.28H639.76V138h17.58V109.06c.11-7.61,5.71-13.66,13.1-13.66,10.3,0,13.43,4.81,13.43,14V138h17.36V109.4C701.23,95.85,696.19,78.38,672.57,78.38Z"/><polygon class="cls-1" points="744.23 102.9 766.4 80.28 745.13 80.28 726.99 97.3 726.99 62.11 709.52 62.11 709.52 137.95 726.99 137.95 726.99 121.71 734.38 114.44 751.17 137.95 771.63 137.95 744.23 102.9"/><path class="cls-1" d="M139.34,51a3,3,0,0,0,4.38.19l23.39-23.37a3,3,0,0,0-.14-4.36c-11.49-10-64.3-49.44-133.83,3.95C33.14,27.37,94.13-.84,139.34,51Z"/><path class="cls-1" d="M169.06,175.75,141.67,149a3,3,0,0,0-3.62-.41c-62,36.46-91.28-27.87-91.28-27.87,10.43,84.14,93,81.85,122.06,59.51A3,3,0,0,0,169.06,175.75Z"/><path class="cls-1" d="M53.89,66.37C70,46.57,95.73,38.4,122,42,87.13,20.72,45.49,21.39,20.44,46.44-10.12,77-6.33,135.23,31.26,172.82c23.67,23.67,56.25,31.68,83.35,29-13.68-3.43-30.7-9.29-42.81-19.15C33.45,151.44,27.37,99,53.89,66.37Z"/></g></g></svg>