<svg xmlns="http://www.w3.org/2000/svg" id="a103f326-996f-4fea-8e69-572a052820ff" data-name="Layer 1" width="825.7666" height="640.565" viewBox="0 0 825.7666 640.565"><title>performance_overview</title><polygon points="479.735 627.22 288.489 627.22 294.972 542.943 473.252 542.943 479.735 627.22" fill="#e6e6e6"/><rect x="278.76465" y="617.49611" width="213.93566" height="19.4487" fill="#e6e6e6"/><path d="M937.51223,129.7175H206.5654a19.4487,19.4487,0,0,0-19.4487,19.4487V594.86549H956.96093V149.1662A19.4487,19.4487,0,0,0,937.51223,129.7175Z" transform="translate(-187.1167 -129.7175)" fill="#39374e"/><path d="M187.1167,594.86549V667.7981a19.44869,19.44869,0,0,0,19.4487,19.44869H937.51223a19.44869,19.44869,0,0,0,19.4487-19.44869V594.86549Z" transform="translate(-187.1167 -129.7175)" fill="#e6e6e6"/><rect x="38.89739" y="40.51812" width="693.67017" height="388.97393" fill="#e6e6e6"/><circle cx="385.73248" cy="510.52828" r="19.4487" fill="#39374e"/><circle cx="60.52625" cy="53.25663" r="3.69086" fill="#fff"/><circle cx="74.53585" cy="53.25663" r="3.69086" fill="#fff"/><circle cx="88.54544" cy="53.25663" r="3.69086" fill="#fff"/><rect x="56.83538" y="65.79811" width="655.73993" height="326.67429" fill="#fff"/><rect x="96.4243" y="113.80551" width="143.32069" height="125.17652" fill="#e6e6e6"/><rect x="313.69839" y="114.18199" width="142.88963" height="124.80003" fill="#e6e6e6"/><rect x="528.69509" y="112.95777" width="144.29131" height="126.02426" fill="#e6e6e6"/><rect x="96.4243" y="293.62072" width="140.1765" height="12.94905" fill="#e6e6e6"/><rect x="96.4243" y="316.41837" width="70.23225" height="12.94905" fill="#6c63ff"/><rect x="316.03407" y="293.62072" width="140.1765" height="12.94905" fill="#e6e6e6"/><rect x="316.03407" y="316.41837" width="70.23225" height="12.94905" fill="#6c63ff"/><rect x="530.15359" y="293.62072" width="140.1765" height="12.94905" fill="#e6e6e6"/><rect x="530.15359" y="316.41837" width="70.23225" height="12.94905" fill="#6c63ff"/><circle cx="359.58712" cy="266.25839" r="6.61746" fill="#6c63ff"/><circle cx="384.70535" cy="266.25839" r="6.61746" fill="#e6e6e6"/><circle cx="409.82358" cy="266.25839" r="6.61746" fill="#e6e6e6"/><circle cx="142.96641" cy="266.25839" r="6.61746" fill="#6c63ff"/><circle cx="168.08465" cy="266.25839" r="6.61746" fill="#6c63ff"/><circle cx="193.20288" cy="266.25839" r="6.61746" fill="#e6e6e6"/><circle cx="581.54985" cy="266.25839" r="6.61746" fill="#6c63ff"/><circle cx="606.66808" cy="266.25839" r="6.61746" fill="#6c63ff"/><circle cx="631.78631" cy="266.25839" r="6.61746" fill="#6c63ff"/><path d="M787.95744,269.00126a36.68614,36.68614,0,1,0,36.68614,36.68613A36.794,36.794,0,0,0,787.95744,269.00126Zm0,11.00584a11.00584,11.00584,0,1,1-11.00584,11.00584,11.04276,11.04276,0,0,1,11.00584-11.00584Zm0,52.98324a26.72558,26.72558,0,0,1-22.01168-11.74662c.17638-7.33722,14.67446-11.37623,22.01168-11.37623s21.83531,4.039,22.01168,11.37623a26.77008,26.77008,0,0,1-22.01168,11.74662Z" transform="translate(-187.1167 -129.7175)" fill="#6c63ff"/><path d="M572.25991,269.61337A36.68614,36.68614,0,1,0,608.946,306.29951,36.794,36.794,0,0,0,572.25991,269.61337Zm0,11.00584a11.00585,11.00585,0,1,1-11.00584,11.00585,11.04277,11.04277,0,0,1,11.00584-11.00585Zm0,52.98325a26.72557,26.72557,0,0,1-22.01168-11.74662c.17637-7.33723,14.67445-11.37623,22.01168-11.37623s21.8353,4.039,22.01168,11.37623a26.77012,26.77012,0,0,1-22.01169,11.74662Z" transform="translate(-187.1167 -129.7175)" fill="#6c63ff"/><path d="M355.20135,269.42513a36.68614,36.68614,0,1,0,36.68613,36.68614A36.794,36.794,0,0,0,355.20135,269.42513Zm0,11.00584a11.00585,11.00585,0,1,1-11.00584,11.00585A11.04277,11.04277,0,0,1,355.20135,280.431Zm0,52.98325a26.72561,26.72561,0,0,1-22.01169-11.74662c.17638-7.33723,14.67446-11.37623,22.01169-11.37623s21.8353,4.039,22.01168,11.37623a26.77014,26.77014,0,0,1-22.01169,11.74662Z" transform="translate(-187.1167 -129.7175)" fill="#6c63ff"/></svg>