<svg xmlns="http://www.w3.org/2000/svg" viewBox="0 0 1440 320">
    <linearGradient id="gradiente" x1="50%" y1="100%" x2="50%" y2="0%" >
    
          <stop offset="0%" style="stop-color:rgb(108,99,255);stop-opacity:1.00" />
          <stop offset="81%" style="stop-color:rgb(57,55,78);stop-opacity:1.00" />

    </linearGradient>
    <path fill="url(#gradiente)" fill-opacity="1" d="M0,128L48,138.7C96,149,192,171,288,192C384,213,480,235,576,218.7C672,203,768,149,864,133.3C960,117,1056,139,1152,138.7C1248,139,1344,117,1392,106.7L1440,96L1440,320L1392,320C1344,320,1248,320,1152,320C1056,320,960,320,864,320C768,320,672,320,576,320C480,320,384,320,288,320C192,320,96,320,48,320L0,320Z">
    </path>
    </svg>