<svg width="22" height="22" viewBox="0 0 22 22" fill="none" xmlns="http://www.w3.org/2000/svg">
<path d="M9.33043 4.39999H5.90375C5.07442 4.39999 4.40002 5.07439 4.40002 5.90372V9.32584C4.40002 10.1552 5.07442 10.8296 5.90375 10.8296H9.32587C10.1552 10.8296 10.8296 10.1552 10.8296 9.32584V5.89917C10.8342 5.07439 10.1598 4.39999 9.33043 4.39999ZM9.60384 9.32584C9.60384 9.47622 9.4808 9.59925 9.33043 9.59925H5.90375C5.75338 9.59925 5.63035 9.47622 5.63035 9.32584V5.89917C5.63035 5.74879 5.75338 5.62576 5.90375 5.62576H9.32587C9.47625 5.62576 9.59928 5.74879 9.59928 5.89917V9.32584H9.60384Z" fill="#F2F2F4"/>
<path d="M9.33043 12.1829H5.90375C5.07442 12.1829 4.40002 12.8573 4.40002 13.6867V17.1088C4.40002 17.9381 5.07442 18.6125 5.90375 18.6125H9.32587C10.1552 18.6125 10.8296 17.9381 10.8296 17.1088V13.6867C10.8342 12.8573 10.1598 12.1829 9.33043 12.1829ZM9.60384 17.1088C9.60384 17.2591 9.4808 17.3822 9.33043 17.3822H5.90375C5.75338 17.3822 5.63035 17.2591 5.63035 17.1088V13.6867C5.63035 13.5363 5.75338 13.4132 5.90375 13.4132H9.32587C9.47625 13.4132 9.59928 13.5363 9.59928 13.6867V17.1088H9.60384Z" fill="#F2F2F4"/>
<path d="M17.1134 12.1829H13.6912C12.8619 12.1829 12.1875 12.8573 12.1875 13.6867V17.1088C12.1875 17.9381 12.8619 18.6125 13.6912 18.6125H17.1134C17.9427 18.6125 18.6171 17.9381 18.6171 17.1088V13.6867C18.6125 12.8573 17.9427 12.1829 17.1134 12.1829ZM17.3822 17.1088C17.3822 17.2591 17.2592 17.3822 17.1088 17.3822H13.6867C13.5363 17.3822 13.4133 17.2591 13.4133 17.1088V13.6867C13.4133 13.5363 13.5363 13.4132 13.6867 13.4132H17.1088C17.2592 13.4132 17.3822 13.5363 17.3822 13.6867V17.1088Z" fill="#F2F2F4"/>
<path d="M17.1134 4.39999H13.6912C12.8619 4.39999 12.1875 5.07439 12.1875 5.90372V9.32584C12.1875 10.1552 12.8619 10.8296 13.6912 10.8296H17.1134C17.9427 10.8296 18.6171 10.1552 18.6171 9.32584V5.89917C18.6125 5.07439 17.9427 4.39999 17.1134 4.39999ZM17.3822 9.32584C17.3822 9.47622 17.2592 9.59925 17.1088 9.59925H13.6867C13.5363 9.59925 13.4133 9.47622 13.4133 9.32584V5.89917C13.4133 5.74879 13.5363 5.62576 13.6867 5.62576H17.1088C17.2592 5.62576 17.3822 5.74879 17.3822 5.89917V9.32584Z" fill="#F2F2F4"/>
</svg>
