<svg xmlns="http://www.w3.org/2000/svg" id="a9030f9c-6ad0-478e-8ef1-486ed5e06330" data-name="Layer 1" width="768" height="728.85799" viewBox="0 0 768 728.85799"><path d="M682.88391,258.51823h-3.99878V148.9729A63.40187,63.40187,0,0,0,615.48334,85.571H383.39661a63.40184,63.40184,0,0,0-63.402,63.40171V749.94712A63.40181,63.40181,0,0,0,383.39642,813.349H615.483a63.40185,63.40185,0,0,0,63.402-63.40167V336.49449h3.99884Z" transform="translate(-216 -85.571)" fill="#3f3d56"/><path d="M618.04138,102.066h-30.295a22.49486,22.49486,0,0,1-20.82715,30.99052H433.95978A22.4948,22.4948,0,0,1,413.13263,102.066H384.837a47.34781,47.34781,0,0,0-47.34784,47.34774V749.50627A47.34781,47.34781,0,0,0,384.837,796.85411h233.2044a47.34781,47.34781,0,0,0,47.34784-47.34778h0V149.41371a47.34777,47.34777,0,0,0-47.34784-47.3477Z" transform="translate(-216 -85.571)" fill="#fff"/><rect x="149.43143" y="128.24738" width="135.60425" height="231.65729" fill="#e6e6e6"/><rect x="308.33337" y="378.05048" width="112.70621" height="262.26761" fill="#e6e6e6"/><rect x="308.44357" y="128.24738" width="113.00354" height="63.7663" fill="#e6e6e6"/><rect x="308.44357" y="209.77137" width="113.00354" height="68.60928" fill="#6c63ff"/><rect x="308.44357" y="296.13837" width="113.00354" height="63.7663" fill="#e6e6e6"/><rect x="149.59921" y="378.05048" width="135.60425" height="100.95499" fill="#e6e6e6"/><rect x="149.59921" y="498.57563" width="135.60425" height="141.95499" fill="#e6e6e6"/><path d="M983,814.429H217a1,1,0,0,1,0-2H983a1,1,0,0,1,0,2Z" transform="translate(-216 -85.571)" fill="#3f3d56"/></svg>