<svg width="208" height="48" viewBox="0 0 208 48" fill="none" xmlns="http://www.w3.org/2000/svg">
<g filter="url(#filter0_d_114:20)">
<path d="M51.0583 12.4714C46.7338 12.4714 42.9927 14.9594 41.1818 18.5809V13.0524H35.3721V42.101H41.1818V25.8338C41.1818 21.6627 44.5633 18.2811 48.7344 18.2811C52.9055 18.2811 56.287 21.6627 56.287 25.8338V42.101H62.0968V23.5099C62.0968 17.4134 57.1547 12.4714 51.0583 12.4714Z" fill="#FFFDFD"/>
<path d="M156.218 5.49964L150.408 3.17575V12.4713H142.855C138.531 12.4713 134.79 14.9593 132.979 18.5808V13.0523H127.169V42.1009H132.979V25.8337C132.979 21.6626 136.36 18.281 140.531 18.281H150.408V42.1009H156.218V18.281H164.351V12.4713H156.218V5.49964Z" fill="#FFFDFD"/>
<path d="M183.529 12.4713C179.205 12.4713 175.463 14.9593 173.652 18.5808V3.17575H167.843V42.1009H173.652V25.8337C173.652 21.6626 177.034 18.281 181.205 18.281C185.376 18.281 188.758 21.6626 188.758 25.8337V42.1009H194.567V23.5098C194.567 17.4133 189.625 12.4713 183.529 12.4713Z" fill="#FFFDFD"/>
<path d="M200.948 41.8361C199.489 41.8361 198.307 40.6538 198.307 39.1953C198.307 37.737 199.489 36.5545 200.948 36.5545C202.406 36.5545 203.589 37.737 203.589 39.1953C203.589 40.6538 202.406 41.8361 200.948 41.8361ZM200.948 36.2904C199.346 36.2904 198.043 37.5938 198.043 39.1953C198.043 40.797 199.346 42.1001 200.948 42.1001C202.55 42.1001 203.853 40.797 203.853 39.1953C203.853 37.5938 202.55 36.2904 200.948 36.2904Z" fill="white"/>
<path d="M200.947 38.2871C201.325 38.2871 201.65 38.5192 201.786 38.8483L202.345 38.6171C202.118 38.0678 201.578 37.682 200.947 37.682C200.316 37.682 199.776 38.0678 199.55 38.6171C199.476 38.7954 199.435 38.9906 199.435 39.1949C199.435 39.3991 199.476 39.5943 199.55 39.7726C199.776 40.3219 200.316 40.7077 200.947 40.7077C201.578 40.7077 202.118 40.3219 202.345 39.7726L201.786 39.5414C201.65 39.8705 201.325 40.1026 200.947 40.1026C200.447 40.1026 200.04 39.6954 200.04 39.1949C200.04 38.6943 200.447 38.2871 200.947 38.2871Z" fill="white"/>
<path d="M108.002 37.4532C105.101 37.4532 102.193 35.4785 102.193 32.5149C102.193 30.1085 104.006 28.1576 106.84 28.1576H116.426C116.426 34.2056 112.976 37.4532 108.002 37.4532ZM109.745 12.4714C104.55 12.4714 100.08 15.5715 98.081 20.024H105.139C106.367 18.9402 107.979 18.2811 109.745 18.2811C112.992 18.2811 115.715 20.5048 116.489 23.5099H106.84C100.495 23.5099 96.3828 27.8015 96.3828 33.0959C96.3828 38.3903 101.054 42.6819 106.84 42.6819C111.165 42.6819 114.906 40.1939 116.717 36.5724V42.101H122.527V25.2525C122.527 18.194 116.804 12.4714 109.745 12.4714Z" fill="#FFFDFD"/>
<path d="M26.0769 27.5767C26.0769 33.3864 22.4354 36.8722 17.9433 36.8722C13.4512 36.8722 9.80972 33.3864 9.80972 27.5767C9.80972 21.767 13.4512 18.2811 17.9433 18.2811C22.4354 18.2811 26.0769 21.767 26.0769 27.5767ZM17.9433 12.4714C10.2425 12.4714 4 18.2811 4 27.5767C4 36.8722 10.2425 42.6819 17.9433 42.6819C25.6441 42.6819 31.8866 36.8722 31.8866 27.5767C31.8866 18.2811 25.6441 12.4714 17.9433 12.4714Z" fill="#FFFDFD"/>
<path d="M71.7216 24.6718C72.7229 20.6256 75.8325 18.2811 79.5156 18.2811C83.1984 18.2811 86.308 20.6256 87.3093 24.6718H71.7216ZM79.5156 12.4714C71.8148 12.4714 65.5723 18.2811 65.5723 27.5767C65.5723 36.8722 71.8148 42.6819 79.5156 42.6819C85.2527 42.6819 90.1784 39.4558 92.3185 33.9674H85.6286C84.1384 35.8378 81.9551 36.8722 79.5156 36.8722C75.4929 36.8722 72.1547 34.0754 71.5002 29.3196H93.3822C93.4325 28.7531 93.4589 28.1725 93.4589 27.5767C93.4589 18.2811 87.2161 12.4714 79.5156 12.4714Z" fill="#FFFDFD"/>
</g>
<defs>
<filter id="filter0_d_114:20" x="0" y="0" width="208" height="48" filterUnits="userSpaceOnUse" color-interpolation-filters="sRGB">
<feFlood flood-opacity="0" result="BackgroundImageFix"/>
<feColorMatrix in="SourceAlpha" type="matrix" values="0 0 0 0 0 0 0 0 0 0 0 0 0 0 0 0 0 0 127 0" result="hardAlpha"/>
<feOffset dy="1"/>
<feGaussianBlur stdDeviation="2"/>
<feColorMatrix type="matrix" values="0 0 0 0 0 0 0 0 0 0 0 0 0 0 0 0 0 0 0.25 0"/>
<feBlend mode="normal" in2="BackgroundImageFix" result="effect1_dropShadow_114:20"/>
<feBlend mode="normal" in="SourceGraphic" in2="effect1_dropShadow_114:20" result="shape"/>
</filter>
</defs>
</svg>
