<!-- <svg xmlns="http://www.w3.org/2000/svg" id="ea2d365b-f360-4dd3-a2f3-62c898b94c3b" data-name="Layer 1" width="731.66157" height="436.37988" viewBox="0 0 731.66157 436.37988"><path d="M322.18476,528.70207a26.0966,26.0966,0,0,0-.76043-19.00321c-.26154-.59556.67649-.97006.93771-.37522a27.14434,27.14434,0,0,1,.7511,19.77617c-.21462.61479-1.14184.21371-.92838-.39774Z" transform="translate(-234.16922 -231.81006)" fill="#fff"/><path d="M871.49841,246.80994h-143.79v9.25a2.03965,2.03965,0,0,0,.46045,1.3c-.29,7.23005-.46045,16.46-.46045,26.49v247.3c0,23.18.93018,42.04,2.07032,42.04h139.6499c1.14014,0,2.06982-18.86,2.06982-42.04v-247.3c0-10.03-.16992-19.25994-.46-26.49a2.03925,2.03925,0,0,0,.46-1.3Z" transform="translate(-234.16922 -231.81006)" fill="#fff"/><path d="M869.42859,574.18994H729.77869c-1.08838,0-1.80738,0-2.46143-13.27832-.39258-7.96826-.60889-18.53808-.60889-29.76172V283.8501c0-9.69385.16382-19.11572.46119-26.53028.186-4.45166.39917-8.01757.6333-10.60009.45947-5.05567.89648-5.90967,1.97583-5.90967h139.6499c1.07935,0,1.51611.854,1.97583,5.90967.23462,2.59228.44751,6.1582.63306,10.59814l.00024.00195c.29712,7.40674.46069,16.82862.46069,26.53028V531.1499c0,11.22412-.21606,21.79395-.60864,29.76172C871.236,574.18994,870.517,574.18994,869.42859,574.18994Zm-139.08179-2H868.86047c.72364-2.73291,1.63794-17.57031,1.63794-41.04V283.8501c0-9.6753-.16308-19.06787-.459-26.44824h-.00024c-.18409-4.40821-.395-7.94141-.62647-10.50147a28.88406,28.88406,0,0,0-.56177-4.09033H730.35632a28.89649,28.89649,0,0,0-.56176,4.09033c-.2312,2.55029-.4419,6.0835-.62671,10.50147-.29615,7.38671-.45948,16.78027-.45948,26.44824V531.1499C728.70837,554.61914,729.62293,569.457,730.3468,572.18994Z" transform="translate(-234.16922 -231.81006)" fill="#e4e4e4"/><path d="M869.42859,241.80994H729.77869a2.07433,2.07433,0,0,0-2.07032,2.07v12.18a2.03965,2.03965,0,0,0,.46045,1.3,2.0795,2.0795,0,0,0,1.60987.77h139.6499a2.08023,2.08023,0,0,0,1.60986-.77,2.03925,2.03925,0,0,0,.46-1.3v-12.18A2.0739,2.0739,0,0,0,869.42859,241.80994Z" transform="translate(-234.16922 -231.81006)" fill="#cacaca"/><circle id="b800b2fc-3bcc-4a40-9972-a80335d602c8" data-name="Ellipse 90" cx="505.55903" cy="17.56535" r="2.93962" fill="#fff"/><circle id="fa63cc97-e384-451c-9b8c-3b6845b8b0f6" data-name="Ellipse 91" cx="516.71687" cy="17.56535" r="2.93962" fill="#fff"/><circle id="beaeadfc-8efd-4e6c-adaf-945ac9d4d623" data-name="Ellipse 92" cx="527.87522" cy="17.56535" r="2.93962" fill="#fff"/><path d="M858.49841,245.45H845.64832a.95609.95609,0,0,0-.94971.95.80091.80091,0,0,0,.1001.41.94344.94344,0,0,0,.84961.54h12.85009a.948.948,0,0,0,.86036-.54.91378.91378,0,0,0,.08984-.41A.94956.94956,0,0,0,858.49841,245.45Z" transform="translate(-234.16922 -231.81006)" fill="#fff"/><path d="M858.49841,249.02H845.64832a.95.95,0,0,0,0,1.9h12.85009a.95.95,0,1,0,0-1.9Z" transform="translate(-234.16922 -231.81006)" fill="#fff"/><path d="M858.49841,252.59H845.64832a.95.95,0,0,0,0,1.9h12.85009a.95.95,0,1,0,0-1.9Z" transform="translate(-234.16922 -231.81006)" fill="#fff"/><path d="M813.49841,284.83H787.05847a5.002,5.002,0,0,0-5,5v22.9a5.0084,5.0084,0,0,0,5,5h26.43994a5.0147,5.0147,0,0,0,5-5v-22.9A5.00824,5.00824,0,0,0,813.49841,284.83Z" transform="translate(-234.16922 -231.81006)" fill="#39374e"/><path d="M846.34851,332.68994h-92.1499a2.27,2.27,0,1,0,0,4.54h92.1499a2.27,2.27,0,1,0,0-4.54Z" transform="translate(-234.16922 -231.81006)" fill="#e4e4e4"/><path d="M789.19861,343.33h-35a2.27,2.27,0,1,0,0,4.54h35a2.27,2.27,0,1,0,0-4.54Z" transform="translate(-234.16922 -231.81006)" fill="#e4e4e4"/><path d="M813.49841,383.83H787.05847a5.002,5.002,0,0,0-5,5v22.9a5.0084,5.0084,0,0,0,5,5h26.43994a5.0147,5.0147,0,0,0,5-5v-22.9A5.00824,5.00824,0,0,0,813.49841,383.83Z" transform="translate(-234.16922 -231.81006)" fill="#39374e"/><path d="M846.34851,431.68994h-92.1499a2.27,2.27,0,1,0,0,4.54h92.1499a2.27,2.27,0,1,0,0-4.54Z" transform="translate(-234.16922 -231.81006)" fill="#e4e4e4"/><path d="M789.19861,442.33h-35a2.27,2.27,0,1,0,0,4.54h35a2.27,2.27,0,1,0,0-4.54Z" transform="translate(-234.16922 -231.81006)" fill="#e4e4e4"/><path d="M813.49841,482.83H787.05847a5.002,5.002,0,0,0-5,5v22.9a5.0084,5.0084,0,0,0,5,5h26.43994a5.0147,5.0147,0,0,0,5-5v-22.9A5.00824,5.00824,0,0,0,813.49841,482.83Z" transform="translate(-234.16922 -231.81006)" fill="#39374e"/><path d="M846.34851,530.68994h-92.1499a2.27,2.27,0,1,0,0,4.54h92.1499a2.27,2.27,0,1,0,0-4.54Z" transform="translate(-234.16922 -231.81006)" fill="#e4e4e4"/><path d="M789.19861,541.33h-35a2.27,2.27,0,1,0,0,4.54h35a2.27,2.27,0,1,0,0-4.54Z" transform="translate(-234.16922 -231.81006)" fill="#e4e4e4"/><path d="M688.49841,234.87994a2.0739,2.0739,0,0,0-2.06982-2.07H316.77869a2.07433,2.07433,0,0,0-2.07032,2.07v12.18a2.01687,2.01687,0,0,0,.53028,1.37c-.33008,8.27-.53028,19.17-.53028,31.11v274.91c0,25.78.93018,46.74,2.07032,46.74h369.6499c1.14014,0,2.06982-20.96,2.06982-46.74v-274.91c0-11.94-.1997-22.84-.52978-31.11a2.01645,2.01645,0,0,0,.52978-1.37Z" transform="translate(-234.16922 -231.81006)" fill="#fff"/><path d="M686.42859,602.18994H316.77869c-1.13,0-1.81214,0-2.46179-14.6582-.39246-8.855-.60853-20.60352-.60853-33.082V279.54c0-11.50733.1886-22.56983.53113-31.1499.65735-16.58008,1.406-16.58008,2.53919-16.58008h369.6499c1.13306,0,1.88184.00293,2.53931,16.58008h0c.342,8.57226.53051,19.63476.53051,31.1499V554.44971c0,12.479-.21606,24.22754-.60839,33.082C688.2406,602.18994,687.55847,602.18994,686.42859,602.18994Zm-369.06616-2H685.84485c.81811-3.13525,1.65356-20.74023,1.65356-45.74023V279.54c0-11.48926-.188-22.52393-.529-31.06983v-.00048c-.4165-10.50342-.90283-13.69971-1.13525-14.65967H317.37329c-.23254.96-.71887,4.15625-1.1355,14.65967-.34143,8.55468-.52942,19.58886-.52942,31.07031V554.44971C315.70837,579.44971,316.544,597.0542,317.36243,600.18994Z" transform="translate(-234.16922 -231.81006)" fill="#e4e4e4"/><path d="M686.42859,232.80994H316.77869a2.07433,2.07433,0,0,0-2.07032,2.07v12.18a2.01687,2.01687,0,0,0,.53028,1.37,2.05118,2.05118,0,0,0,1.54.7h369.6499a2.0512,2.0512,0,0,0,1.54-.7,2.01645,2.01645,0,0,0,.52978-1.37v-12.18A2.0739,2.0739,0,0,0,686.42859,232.80994Z" transform="translate(-234.16922 -231.81006)" fill="#cacaca"/><circle id="b7005a6f-2f7f-4001-b097-d8b6c117468f" data-name="Ellipse 90" cx="92.55903" cy="8.56535" r="2.93962" fill="#fff"/><circle id="a0adf4f5-8105-4330-a35a-c3adb8f4e7bc" data-name="Ellipse 91" cx="103.71687" cy="8.56535" r="2.93962" fill="#fff"/><circle id="a64b73a5-7207-44c1-bcaf-f99ab7b9c6dc" data-name="Ellipse 92" cx="114.87522" cy="8.56535" r="2.93962" fill="#fff"/><path d="M675.49841,236.45H662.64832a.95.95,0,0,0,0,1.9h12.85009a.95.95,0,1,0,0-1.9Z" transform="translate(-234.16922 -231.81006)" fill="#fff"/><path d="M675.49841,240.02H662.64832a.95.95,0,0,0,0,1.9h12.85009a.95.95,0,1,0,0-1.9Z" transform="translate(-234.16922 -231.81006)" fill="#fff"/><path d="M675.49841,243.59H662.64832a.95.95,0,0,0,0,1.9h12.85009a.95.95,0,1,0,0-1.9Z" transform="translate(-234.16922 -231.81006)" fill="#fff"/><path d="M436.25867,293.83H392.99841a8.18973,8.18973,0,0,0-8.17968,8.18v37.47a8.18973,8.18973,0,0,0,8.17968,8.18h43.26026a8.18974,8.18974,0,0,0,8.17969-8.18V302.01A8.18974,8.18974,0,0,0,436.25867,293.83Z" transform="translate(-234.16922 -231.81006)" fill="#39374e"/><path d="M614.68836,308.32H463.90857a3.715,3.715,0,0,0,0,7.43H614.68836a3.715,3.715,0,0,0,0-7.43Z" transform="translate(-234.16922 -231.81006)" fill="#e4e4e4"/><path d="M521.17859,325.72992h-57.27a3.715,3.715,0,0,0,0,7.43h57.27a3.715,3.715,0,0,0,0-7.43Z" transform="translate(-234.16922 -231.81006)" fill="#e4e4e4"/><path d="M436.25867,393.83H392.99841a8.18973,8.18973,0,0,0-8.17968,8.18v37.47a8.18973,8.18973,0,0,0,8.17968,8.18h43.26026a8.18974,8.18974,0,0,0,8.17969-8.18V402.01A8.18974,8.18974,0,0,0,436.25867,393.83Z" transform="translate(-234.16922 -231.81006)" fill="#39374e"/><path d="M614.68836,408.32H463.90857a3.715,3.715,0,0,0,0,7.43H614.68836a3.715,3.715,0,0,0,0-7.43Z" transform="translate(-234.16922 -231.81006)" fill="#e4e4e4"/><path d="M521.17859,425.72992h-57.27a3.715,3.715,0,0,0,0,7.43h57.27a3.715,3.715,0,0,0,0-7.43Z" transform="translate(-234.16922 -231.81006)" fill="#e4e4e4"/><path d="M436.25867,493.83H392.99841a8.18973,8.18973,0,0,0-8.17968,8.18v37.47a8.18973,8.18973,0,0,0,8.17968,8.18h43.26026a8.18974,8.18974,0,0,0,8.17969-8.18V502.01A8.18974,8.18974,0,0,0,436.25867,493.83Z" transform="translate(-234.16922 -231.81006)" fill="#39374e"/><path d="M614.68836,508.32H463.90857a3.715,3.715,0,0,0,0,7.43H614.68836a3.715,3.715,0,0,0,0-7.43Z" transform="translate(-234.16922 -231.81006)" fill="#e4e4e4"/><path d="M521.17859,525.72992h-57.27a3.715,3.715,0,0,0,0,7.43h57.27a3.715,3.715,0,0,0,0-7.43Z" transform="translate(-234.16922 -231.81006)" fill="#e4e4e4"/><path d="M752.43145,667.18994H504.78266c-1.14175,0-2.07052-17.54946-2.07052-39.12333v-230.134c0-21.57387.92877-39.12334,2.07052-39.12334H752.43145c1.14175,0,2.07052,17.54947,2.07052,39.12334v230.134C754.502,649.64048,753.5732,667.18994,752.43145,667.18994Z" transform="translate(-234.16922 -231.81006)" fill="#fff"/><path d="M752.43152,668.18994H504.78259c-1.0476,0-1.80468,0-2.46191-12.41846-.39258-7.415-.60864-17.2539-.60864-27.70507V397.93262c0-10.45069.21606-20.29.60864-27.70459.65723-12.41895,1.41431-12.41895,2.46191-12.41895H752.43152c1.04761,0,1.80469,0,2.46191,12.41895.39258,7.41455.60865,17.2539.60865,27.70459V628.06641c0,10.45117-.21607,20.29-.60865,27.70507C754.23621,668.18994,753.47913,668.18994,752.43152,668.18994Zm-247.09546-2h246.542c.71778-2.59082,1.624-16.394,1.624-38.12353V397.93262c0-21.7295-.90625-35.53272-1.624-38.12354h-246.542c-.71777,2.59082-1.624,16.394-1.624,38.12354V628.06641C503.712,649.7959,504.61829,663.59912,505.33606,666.18994Z" transform="translate(-234.16922 -231.81006)" fill="#e4e4e4"/><path d="M752.43145,375.12966H504.78266a2.07278,2.07278,0,0,1-2.07052-2.07051V360.87979a2.07279,2.07279,0,0,1,2.07052-2.07052H752.43145a2.07279,2.07279,0,0,1,2.07052,2.07052v12.17936A2.07278,2.07278,0,0,1,752.43145,375.12966Z" transform="translate(-234.16922 -231.81006)" fill="#cacaca"/><circle id="a9432236-99f6-4733-9920-e312ad95354d" data-name="Ellipse 90" cx="280.55903" cy="134.56535" r="2.93962" fill="#fff"/><circle id="fc8d1cb9-e477-4d66-a241-a00170356ca4" data-name="Ellipse 91" cx="291.71687" cy="134.56535" r="2.93962" fill="#fff"/><circle id="bc1189a4-69b8-41a6-80e2-1e52c3b8abfb" data-name="Ellipse 92" cx="302.87522" cy="134.56535" r="2.93962" fill="#fff"/><path d="M741.49915,364.35211H728.65048a.95175.95175,0,0,1,0-1.90351h12.84867a.95176.95176,0,0,1,0,1.90351Z" transform="translate(-234.16922 -231.81006)" fill="#fff"/><path d="M741.49915,367.92118H728.65048a.95175.95175,0,0,1,0-1.9035h12.84867a.95175.95175,0,1,1,0,1.9035Z" transform="translate(-234.16922 -231.81006)" fill="#fff"/><path d="M741.49915,371.49026H728.65048a.95175.95175,0,0,1,0-1.90351h12.84867a.95176.95176,0,0,1,0,1.90351Z" transform="translate(-234.16922 -231.81006)" fill="#fff"/><path d="M580.88245,450.72656H549.28922a5.98137,5.98137,0,0,1-5.97452-5.97452V417.38882a5.98137,5.98137,0,0,1,5.97452-5.97453h31.59323a5.98138,5.98138,0,0,1,5.97453,5.97453V444.752A5.98137,5.98137,0,0,1,580.88245,450.72656Z" transform="translate(-234.16922 -231.81006)" fill="#39374e"/><path d="M711.187,427.42591H601.07653a2.71246,2.71246,0,0,1,0-5.42492H711.187a2.71246,2.71246,0,0,1,0,5.42492Z" transform="translate(-234.16922 -231.81006)" fill="#e4e4e4"/><path d="M642.89822,440.13986H601.07653a2.71245,2.71245,0,1,1,0-5.42491h41.82169a2.71246,2.71246,0,1,1,0,5.42491Z" transform="translate(-234.16922 -231.81006)" fill="#e4e4e4"/><path d="M580.88245,531.72656H549.28922a5.98137,5.98137,0,0,1-5.97452-5.97452V498.38882a5.98137,5.98137,0,0,1,5.97452-5.97453h31.59323a5.98138,5.98138,0,0,1,5.97453,5.97453V525.752A5.98137,5.98137,0,0,1,580.88245,531.72656Z" transform="translate(-234.16922 -231.81006)" fill="#39374e"/><path d="M711.187,508.42591H601.07653a2.71246,2.71246,0,0,1,0-5.42492H711.187a2.71246,2.71246,0,0,1,0,5.42492Z" transform="translate(-234.16922 -231.81006)" fill="#e4e4e4"/><path d="M642.89822,521.13986H601.07653a2.71245,2.71245,0,1,1,0-5.42491h41.82169a2.71246,2.71246,0,1,1,0,5.42491Z" transform="translate(-234.16922 -231.81006)" fill="#e4e4e4"/><path d="M580.88245,612.72656H549.28922a5.98137,5.98137,0,0,1-5.97452-5.97452V579.38882a5.98137,5.98137,0,0,1,5.97452-5.97453h31.59323a5.98138,5.98138,0,0,1,5.97453,5.97453V606.752A5.98137,5.98137,0,0,1,580.88245,612.72656Z" transform="translate(-234.16922 -231.81006)" fill="#39374e"/><path d="M711.187,589.42591H601.07653a2.71246,2.71246,0,1,1,0-5.42492H711.187a2.71246,2.71246,0,1,1,0,5.42492Z" transform="translate(-234.16922 -231.81006)" fill="#e4e4e4"/><path d="M642.89822,602.13986H601.07653a2.71245,2.71245,0,1,1,0-5.42491h41.82169a2.71246,2.71246,0,1,1,0,5.42491Z" transform="translate(-234.16922 -231.81006)" fill="#e4e4e4"/></svg> -->

<svg xmlns="http://www.w3.org/2000/svg" xmlns:xlink="http://www.w3.org/1999/xlink" id="0315a8ac-3017-4957-93c4-92e478eebb20" data-name="Layer 1" width="1036" height="612" viewBox="0 0 1036 612"><defs><linearGradient id="deacd444-d5db-4c24-9492-02e57292be3c" x1="675.05" y1="606.02" x2="675.05" y2="240.27" gradientUnits="userSpaceOnUse"><stop offset="0" stop-color="gray" stop-opacity="0.25"/><stop offset="0.54" stop-color="gray" stop-opacity="0.12"/><stop offset="1" stop-color="gray" stop-opacity="0.1"/></linearGradient><linearGradient id="a1de9c2c-a914-4f57-a703-6b671b828453" x1="473.94" y1="635.65" x2="473.94" y2="301.65" xlink:href="#deacd444-d5db-4c24-9492-02e57292be3c"/><linearGradient id="33ead0d0-8f65-4117-bca2-44ecb419ecb0" x1="363.44" y1="662.65" x2="363.44" y2="401.65" xlink:href="#deacd444-d5db-4c24-9492-02e57292be3c"/><linearGradient id="9a5964b5-9011-4675-8f60-8033350848c0" x1="849.68" y1="703.66" x2="849.68" y2="385.5" xlink:href="#deacd444-d5db-4c24-9492-02e57292be3c"/></defs><title>web_devices</title><path d="M233.4,144.07c-8.06-.23-16.32,0-23.88,2.32-20.57,6.32-30.32,27-27.15,44.87s16.21,33.44,29.74,47.67,28.19,28.3,35.61,45.31c3.7,8.49,5.43,18,1.67,26.48-5.8,13.07-23.29,20.37-40.08,21.89s-33.65-1.44-50.5-2.43c-7.07-.41-14.34-.46-21,1.45-7.31,2.08-13.4,6.33-19,10.76-21.85,17.38-39.34,41.09-36.51,66,3.2,28.23,31.74,50.54,63,62.51,10.35,4,21.3,7.18,30.41,12.84,24,14.93,29.39,42.93,27,67.64s-10.53,49.45-6,73.94c5.33,28.49,28.92,54.23,60.74,66.25,28.35,10.71,63.83,10,89-5.11,12.27-7.38,21.55-17.63,29.62-28.23a227.74,227.74,0,0,0,29.45-51c3.51-8.49,6.81-17.62,15-23.52,5-3.63,11.48-5.66,17.89-7.24,19.32-4.76,39.67-6.06,59.17-10.3S536.7,554,547.3,539.9c15-20,8-45.62,8.07-69.14.12-53.66,39.11-101.69,53.5-154,4.7-17.09,6.45-36-4.05-51.25-7.13-10.35-19.16-17.82-31.8-23.59-27.81-12.69-59.42-18.34-90.51-23.84-43.21-7.64-95.68-8.63-129.17-33.35C321.2,161,277.23,144.07,233.4,144.07Z" transform="translate(-82 -144)" fill="#6c63ff" opacity="0.2"/><ellipse cx="571" cy="487.48" rx="465" ry="124.52" fill="#6c63ff"/><path d="M1008.37,563.92H944.13a21.42,21.42,0,0,0,2.24-9.57V261.79a21.51,21.51,0,0,0-21.51-21.51H427.52A21.51,21.51,0,0,0,406,261.79V554.36a21.42,21.42,0,0,0,2.24,9.57H341.73a5.69,5.69,0,0,0-5.69,5.69v4.59A31.82,31.82,0,0,0,367.86,606H982.24a31.82,31.82,0,0,0,31.82-31.82v-4.59A5.69,5.69,0,0,0,1008.37,563.92Zm-395.89,18.2L607,575.87H743.72l-6.1,6.26Z" transform="translate(-82 -144)" fill="url(#deacd444-d5db-4c24-9492-02e57292be3c)"/><rect x="330.11" y="100.42" width="528.12" height="327.99" rx="23.26" ry="23.26" fill="#39374e"/><rect x="341.22" y="148.23" width="504.77" height="267.95" fill="#fff"/><circle cx="593.61" cy="124.88" r="4.45" fill="#fff"/><path d="M753.55,560.73,736.2,578.52H613.9l-15.67-17.79H349.29a5.56,5.56,0,0,0-5.56,5.56v4.48a31.1,31.1,0,0,0,31.1,31.1H975.28a31.1,31.1,0,0,0,31.1-31.1v-4.48a5.56,5.56,0,0,0-5.56-5.56Z" transform="translate(-82 -144)" fill="#39374e"/><path d="M580.41,301.65H367.48a19.51,19.51,0,0,0-19.53,19.48v295a19.51,19.51,0,0,0,19.53,19.48H580.41a19.51,19.51,0,0,0,19.53-19.48v-295A19.51,19.51,0,0,0,580.41,301.65Z" transform="translate(-82 -144)" fill="url(#a1de9c2c-a914-4f57-a703-6b671b828453)"/><rect x="268.94" y="161.65" width="246" height="327" rx="20" ry="20" fill="#39374e"/><rect x="281.44" y="192.58" width="221" height="265.14" fill="#fff"/><circle cx="390.94" cy="176.65" r="3" fill="#fff"/><circle cx="390.94" cy="472.65" r="9" fill="#fff"/><path d="M418.11,401.65H308.78a10.81,10.81,0,0,0-10.83,10.79V651.86a10.81,10.81,0,0,0,10.83,10.79H418.11a10.81,10.81,0,0,0,10.83-10.79V412.44A10.81,10.81,0,0,0,418.11,401.65Z" transform="translate(-82 -144)" fill="url(#33ead0d0-8f65-4117-bca2-44ecb419ecb0)"/><rect x="216.94" y="259.65" width="129" height="258" rx="11" ry="11" fill="#39374e"/><rect x="226.44" y="283.65" width="110" height="210" fill="#fff"/><circle cx="268.44" cy="271.65" r="1" fill="#fff"/><rect x="273.44" y="270.65" width="22" height="2" rx="1" ry="1" fill="#fff"/><circle cx="280.94" cy="503.65" r="7" fill="#fff"/></svg>