<?xml version="1.0" standalone="no"?>
<!DOCTYPE svg PUBLIC "-//W3C//DTD SVG 20010904//EN"
 "http://www.w3.org/TR/2001/REC-SVG-20010904/DTD/svg10.dtd">
<svg version="1.0" xmlns="http://www.w3.org/2000/svg"
 width="1529.000000pt" height="518.000000pt" viewBox="0 0 1529.000000 518.000000"
 preserveAspectRatio="xMidYMid meet">

<g transform="translate(0.000000,518.000000) scale(0.100000,-0.100000)"
fill="#6C63FF" stroke="none">
<path d="M5450 5109 c-181 -30 -340 -193 -370 -379 -14 -90 -14 -4230 0 -4320
30 -191 189 -350 380 -380 89 -14 4230 -14 4320 0 177 28 330 165 374 335 14
51 16 187 16 1040 1 855 3 977 15 955 13 -22 14 33 15 453 0 417 -2 477 -15
477 -13 0 -15 86 -15 713 0 612 -2 721 -16 772 -44 170 -197 307 -374 335 -82
13 -4251 12 -4330 -1z m1460 -1005 c73 -33 122 -83 155 -156 23 -52 27 -70 23
-137 -6 -126 -66 -217 -178 -270 -73 -35 -191 -37 -261 -4 -111 50 -179 149
-187 268 -15 239 226 400 448 299z m1809 -849 c283 -67 438 -352 392 -720 -8
-58 -48 -225 -102 -417 -49 -177 -94 -348 -100 -382 -13 -76 -4 -139 25 -173
32 -37 100 -37 149 0 46 35 102 121 140 215 17 42 32 79 34 81 1 2 48 -13 103
-35 81 -31 100 -43 100 -59 0 -30 -81 -224 -120 -289 -80 -132 -189 -224 -318
-268 -54 -18 -88 -22 -172 -22 -113 1 -167 12 -244 50 -149 74 -219 205 -218
404 0 116 6 140 127 575 60 214 68 250 69 335 1 119 -18 174 -79 228 -53 47
-100 62 -193 62 -163 0 -284 -95 -368 -290 -15 -36 -98 -348 -184 -695 l-157
-630 -262 -3 c-247 -2 -262 -1 -257 15 3 10 19 77 36 148 17 72 33 139 37 150
3 11 -17 -10 -45 -46 -107 -140 -260 -247 -407 -284 -76 -19 -224 -19 -298 0
-122 32 -210 100 -260 200 -40 82 -50 145 -44 279 5 113 13 153 131 624 69
276 126 505 126 507 0 3 -81 5 -181 5 -167 0 -180 1 -175 18 3 9 23 87 46 172
23 85 46 170 51 188 l11 32 434 0 c286 0 434 -3 434 -10 0 -6 -81 -335 -181
-733 -107 -426 -183 -751 -186 -792 -7 -91 9 -126 69 -150 93 -37 251 13 386
123 49 40 124 136 158 204 19 37 244 902 244 938 0 6 -65 10 -180 10 -99 0
-180 3 -180 8 1 4 25 95 54 202 l52 195 397 3 c218 1 397 1 397 -1 0 -3 -74
-346 -86 -397 -3 -16 13 1 44 45 106 150 224 256 364 326 134 67 257 84 387
54z"/>
</g>
</svg>
