<?xml version="1.0" standalone="no"?>
<!DOCTYPE svg PUBLIC "-//W3C//DTD SVG 20010904//EN"
 "http://www.w3.org/TR/2001/REC-SVG-20010904/DTD/svg10.dtd">
<svg version="1.0" xmlns="http://www.w3.org/2000/svg"
 width="2512.000000pt" height="857.000000pt" viewBox="0 0 2512.000000 857.000000"
 preserveAspectRatio="xMidYMid meet">

<g transform="translate(0.000000,857.000000) scale(0.100000,-0.100000)"
fill="#6C63FF" stroke="none">
<path d="M12120 8513 c-25 -2 -115 -12 -200 -23 -1110 -139 -2134 -730 -2818
-1627 -490 -644 -779 -1388 -852 -2196 -13 -152 -13 -572 0 -724 142 -1563
1117 -2906 2560 -3523 340 -146 716 -248 1105 -301 213 -29 695 -37 925 -15
1155 110 2194 674 2920 1586 97 122 287 402 362 535 285 503 459 1048 530
1660 20 169 16 674 -6 860 -54 461 -165 862 -371 1339 l-16 39 -80 -86 c-128
-139 -290 -251 -467 -325 -48 -20 -89 -37 -91 -39 -2 -1 19 -60 47 -130 123
-314 193 -621 223 -978 14 -173 6 -545 -16 -704 -105 -760 -424 -1424 -944
-1964 -486 -503 -1118 -852 -1791 -987 -275 -56 -369 -64 -690 -64 -315 0
-426 10 -677 60 -688 139 -1304 476 -1797 984 -542 560 -864 1247 -958 2045
-16 141 -16 577 0 715 64 529 213 975 476 1418 228 384 588 773 962 1040 927
661 2129 819 3194 420 74 -28 177 -70 229 -94 52 -24 95 -43 96 -42 2 2 21 41
43 88 86 182 216 348 374 477 l70 57 -138 69 c-454 228 -962 373 -1472 422
-141 14 -597 19 -732 8z"/>
<path d="M15085 7800 c-233 -37 -441 -162 -580 -351 -203 -275 -223 -653 -52
-959 58 -103 205 -252 312 -314 442 -257 1005 -89 1230 367 67 136 87 225 88
382 2 251 -80 451 -253 625 -119 119 -256 195 -421 235 -81 19 -245 27 -324
15z"/>
<path d="M12240 6209 c-268 -30 -570 -135 -800 -278 -755 -470 -1092 -1400
-810 -2240 103 -307 256 -549 492 -776 155 -150 273 -235 458 -329 545 -277
1172 -283 1715 -17 575 282 964 814 1061 1451 21 140 21 401 0 545 -111 736
-619 1340 -1317 1563 -246 79 -547 109 -799 81z"/>
</g>
</svg>
