<svg viewBox="0 0 200 200" xmlns="http://www.w3.org/2000/svg">
  <defs>
   <linearGradient id="gradient" x1="0%" y1="50%" x2="100%" y2="50%" >
    
          <stop offset="0%" style="stop-color:rgb(57,55,78);stop-opacity:1.00" />
          <stop offset="100%" style="stop-color:rgb(108,99,255);stop-opacity:1.00" />

    </linearGradient>
  </defs>
  <!-- <path fill="url(#gradient)" d="M41.2,-26.9C55.6,-14.7,71.3,2.6,69.5,18.1C67.8,33.6,48.6,47.4,28.6,55.5C8.6,63.6,-12.2,66,-33.1,59.5C-54,53,-75,37.4,-76,20.9C-77,4.3,-57.9,-13.3,-41.9,-25.9C-25.9,-38.5,-13,-46,0.2,-46.2C13.3,-46.3,26.7,-39.1,41.2,-26.9Z" transform="translate(100 100)" /> -->
  <path fill="url(#gradient)" d="M60.5,-53.5C70.8,-35.2,66.4,-10.5,60.4,13C54.4,36.6,46.8,58.9,31.5,66.9C16.1,74.9,-6.9,68.5,-17.6,55.9C-28.4,43.3,-26.9,24.5,-33.6,4.9C-40.4,-14.8,-55.3,-35.5,-51.1,-52.3C-46.9,-69.2,-23.4,-82.2,0.8,-82.9C25.1,-83.5,50.1,-71.7,60.5,-53.5Z" transform="translate(100 100)" />

</svg>