<svg viewBox="0 0 200 200" xmlns="http://www.w3.org/2000/svg">
  <defs>
   <linearGradient id="gradient" x1="0%" y1="50%" x2="100%" y2="50%" >
    
           <stop offset="0%" style="stop-color:rgb(108,99,255);stop-opacity:1.00" />
          <stop offset="77%" style="stop-color:rgb(57,55,78);stop-opacity:1.00" />
          
    </linearGradient>
  </defs>
  
  <path fill="url(#gradient)" d="M34,-45.5C45.5,-31,57.1,-21.5,62.3,-8.5C67.5,4.5,66.3,21,58.9,34.2C51.6,47.4,38,57.2,23.6,60.6C9.2,63.9,-5.9,60.9,-23.3,57.4C-40.7,53.9,-60.2,50,-71.3,37.8C-82.4,25.6,-84.9,5.1,-79.9,-12.5C-75,-30.1,-62.5,-44.9,-47.9,-58.9C-33.3,-72.9,-16.7,-86.2,-2.7,-83C11.3,-79.8,22.6,-60.1,34,-45.5Z" transform="translate(100 100)" />
</svg>